<?xml version="1.0" encoding="utf-8"?>
<!-- Generator: Adobe Illustrator 16.0.0, SVG Export Plug-In . SVG Version: 6.00 Build 0)  -->
<!DOCTYPE svg PUBLIC "-//W3C//DTD SVG 1.1//EN" "http://www.w3.org/Graphics/SVG/1.1/DTD/svg11.dtd">
<svg version="1.1" id="Layer_1" xmlns="http://www.w3.org/2000/svg" xmlns:xlink="http://www.w3.org/1999/xlink" x="0px" y="0px"
	 width="144px" height="144px" viewBox="0 0 144 144" enable-background="new 0 0 144 144" xml:space="preserve">
<rect fill="#8DC63F" width="144" height="144"/>
<g>
	<path fill="#FFFFFF" d="M75.77,86.786c0,8.379-13.286,15.171-29.677,15.171c-16.394,0-29.679-6.792-29.679-15.171
		s13.285-15.172,29.679-15.172C62.484,71.614,75.77,78.407,75.77,86.786z"/>
	<ellipse fill="#FFFFFF" cx="101.82" cy="75.425" rx="23.683" ry="12.471"/>
	<path fill="#FFFFFF" d="M89.238,55.407c0,5.192-7.358,9.398-16.434,9.398c-9.079,0-16.438-4.206-16.438-9.398
		c0-5.191,7.358-9.399,16.438-9.399C81.88,46.008,89.238,50.216,89.238,55.407z"/>
	<path fill="#FFFFFF" d="M118.669,46.008c0,4.168-5.528,7.547-12.346,7.547c-6.82,0-12.348-3.379-12.348-7.547
		s5.528-7.548,12.348-7.548C113.141,38.459,118.669,41.84,118.669,46.008z"/>
</g>
</svg>
